<?xml version="1.0" encoding="utf-8"?>
<!-- Svg Vector Icons : http://www.onlinewebfonts.com/icon -->
<!DOCTYPE svg PUBLIC "-//W3C//DTD SVG 1.1//EN" "http://www.w3.org/Graphics/SVG/1.1/DTD/svg11.dtd">
<svg version="1.1" xmlns="http://www.w3.org/2000/svg" xmlns:xlink="http://www.w3.org/1999/xlink" x="0px" y="0px" viewBox="0 0 1000 1000" enable-background="new 0 0 1000 1000" xml:space="preserve">
<metadata> Svg Vector Icons : http://www.onlinewebfonts.com/icon </metadata>
<g><g transform="translate(0.000000,511.000000) scale(0.100000,-0.100000)"><path d="M4522,3913.3C1496.4,3100.5,438.5,2806.9,438.5,2782.6c0-19.4,131-524.1,291.2-1123.4l291.2-1087v-2144.9c0-1475.2,7.3-2188.5,26.7-2275.9c89.8-434.3,431.9-793.4,863.8-905c118.9-31.5,584.7-36.4,3372.6-36.4c2273.5,0,3270.7,7.3,3360.5,26.7c410,84.9,798.3,465.9,890.5,873.5c17,67.9,26.7,917.1,26.7,2319.6V645l-4088.4,4.9l-4088.4,7.3l1511.6,405.2c829.8,220.8,2601,696.3,3935.5,1053c1334.5,356.7,2428.8,650.3,2433.6,655.1c4.9,2.4-126.2,507.1-291.2,1123.4c-228.1,856.5-308.1,1118.5-334.8,1116.1C8620.1,5010,6766.4,4515,4522,3913.3z M8214.9,3721.6c50.9-191.7,97.1-359.1,101.9-373.7c12.1-34-725.5-235.3-747.3-201.4c-26.7,43.7-196.6,703.6-184.4,715.8c12.1,12.1,662.4,196.5,710.9,201.4C8110.6,4063.7,8164,3910.9,8214.9,3721.6z M6696,3369.8c43.7-157.7,87.3-317.8,101.9-356.7c12.1-41.3,14.6-80.1,4.9-89.8c-19.4-17-660-191.7-703.7-191.7c-21.8,0-213.5,647.8-213.5,715.8c0,21.8,604.2,199,693.9,203.8C6611.1,3653.7,6637.8,3588.1,6696,3369.8z M5225.6,2894.2c53.4-196.5,92.2-364,84.9-368.8c-17-19.4-725.5-211.1-735.2-201.4c-14.6,12.1-208.7,727.9-201.4,735.2c14.6,14.6,710.9,199,732.8,196.5C5118.9,3253.3,5172.3,3090.7,5225.6,2894.2z M3638.8,2775.3c58.2-191.7,177.1-652.7,169.8-660c-4.8-4.9-160.1-48.5-344.5-97.1c-182-48.5-347-94.6-364-101.9c-24.3-7.3-60.7,92.2-133.5,359.1c-53.4,203.8-94.6,373.6-89.8,380.9c12.1,12.1,664.8,191.7,708.5,194.1C3600,2853,3624.3,2816.6,3638.8,2775.3z M2221.9,2066.8c48.5-184.4,80.1-344.5,67.9-354.2c-36.4-31.5-693.9-196.5-713.3-177.1c-24.3,26.7-201.4,708.5-189.3,723c7.3,4.9,169.8,53.4,361.5,104.3c242.6,65.5,356.7,87.3,366.4,67.9C2124.8,2416.2,2170.9,2253.7,2221.9,2066.8z M8785.1-1929.4v-1797.9l-53.4-94.6c-33.9-60.7-89.8-111.6-152.9-143.2c-99.5-48.5-138.3-48.5-3319.2-43.7c-3205.2,7.3-3217.3,7.3-3282.8,58.2c-36.4,26.7-89.8,80.1-116.5,116.5c-51,65.5-51,92.2-58.2,1885.2l-4.9,1817.3h3493.9h3493.9V-1929.4z"/></g></g>
</svg>